<?xml version="1.0" encoding="UTF-8" standalone="no"?>
<!-- Created with Inkscape (http://www.inkscape.org/) -->

<svg
   xmlns:dc="http://purl.org/dc/elements/1.1/"
   xmlns:cc="http://creativecommons.org/ns#"
   xmlns:rdf="http://www.w3.org/1999/02/22-rdf-syntax-ns#"
   xmlns:svg="http://www.w3.org/2000/svg"
   xmlns="http://www.w3.org/2000/svg"
   xmlns:sodipodi="http://sodipodi.sourceforge.net/DTD/sodipodi-0.dtd"
   xmlns:inkscape="http://www.inkscape.org/namespaces/inkscape"
   width="107.21651mm"
   height="56.094929mm"
   viewBox="0 0 107.21651 56.094929"
   version="1.1"
   id="svg8"
   inkscape:version="0.92.3 (unknown)"
   sodipodi:docname="kayak.svg">
  <defs
     id="defs2" />
  <sodipodi:namedview
     id="base"
     pagecolor="#ffffff"
     bordercolor="#666666"
     borderopacity="1.0"
     inkscape:pageopacity="0.0"
     inkscape:pageshadow="2"
     inkscape:zoom="1.4"
     inkscape:cx="223.35864"
     inkscape:cy="66.221192"
     inkscape:document-units="px"
     inkscape:current-layer="layer1"
     showgrid="false"
     inkscape:window-width="1291"
     inkscape:window-height="643"
     inkscape:window-x="2300"
     inkscape:window-y="252"
     inkscape:window-maximized="0" />
  <metadata
     id="metadata5">
    <rdf:RDF>
      <cc:Work
         rdf:about="">
        <dc:format>image/svg+xml</dc:format>
        <dc:type
           rdf:resource="http://purl.org/dc/dcmitype/StillImage" />
        <dc:title></dc:title>
      </cc:Work>
    </rdf:RDF>
  </metadata>
  <g
     inkscape:label="Layer 1"
     inkscape:groupmode="layer"
     id="layer1"
     transform="translate(-10.006239,-27.533492)">
    <path
       id="path4546"
       transform="matrix(0.26458333,0,0,0.26458333,10.006239,27.533492)"
       style="fill:none;fill-opacity:1;stroke:#7cd7f7;stroke-width:3.77999973;stroke-linejoin:bevel;stroke-miterlimit:4;stroke-dasharray:none;stroke-dashoffset:0;stroke-opacity:1;paint-order:markers fill stroke"
       d="m 298.66797,1.8886719 c -1.50416,0.073092 -2.94572,0.5964335 -4.34961,1.1074219 -4.92669,2.151171 -9.62047,4.9378969 -13.96484,8.1113282 -2.01185,1.44062 -3.75359,3.206071 -5.65235,4.78125 -0.27129,0.258349 -0.55676,0.503453 -0.81445,0.77539 -0.51875,0.547431 -0.93155,1.189498 -1.45703,1.730469 -0.73395,0.755558 -1.61936,1.37348 -2.38086,2.105469 -1.35034,1.121099 -2.51739,2.436069 -3.82227,3.603516 -1.48599,1.198771 -2.68325,2.688335 -3.95117,4.103515 -1.4618,1.421019 -2.91169,2.811901 -4.16992,4.425781 -0.96214,1.350222 -1.55607,2.806624 -1.85352,4.427735 -0.25506,1.35431 0.11118,2.605046 0.85547,3.730469 0.90865,1.067614 2.22732,1.277709 3.54688,1.412109 0.24078,0.03441 0.47895,0.04249 0.71679,0.05273 -0.47024,0.760883 -0.94213,1.520999 -1.42968,2.269532 -2.11708,3.283699 -4.0472,6.685487 -5.99414,10.072265 -2.60004,4.830792 -5.15746,9.684179 -7.70899,14.541016 -0.47654,0.852672 -0.96459,1.702885 -1.44336,2.55664 -0.21828,0.117148 -0.22434,0.119634 -0.52539,0.28125 -2.2114,1.298612 -4.59682,2.266488 -6.98437,3.191407 -2.91201,1.276781 -6.00787,2.103362 -8.94532,3.326172 -4.29897,1.468558 -8.69321,2.648135 -12.90039,4.378906 -2.80204,1.05662 -1.15901,0.411346 -3.80859,1.505859 -0.56168,0.232018 -1.1518,0.404427 -1.6875,0.691406 -1.92622,1.03187 -3.85388,2.070665 -5.76758,3.132813 -0.44279,-0.0284 -0.90276,-0.195757 -1.29492,-0.269531 -1.56795,-0.778061 -3.15256,-1.616124 -4.85938,-2.027344 -2.47549,-0.575671 -5.0036,-0.49439 -7.52929,-0.611328 -2.97298,-0.214432 -5.91629,-0.637273 -8.8086,-1.376953 -2.98484,-0.584882 -5.95796,-1.242848 -8.94336,-1.824219 -1.95312,-0.514719 -3.91161,-1.009161 -5.85156,-1.564453 l -7.94726,5.482422 c -0.0117,-2.442794 0.0144,-4.885611 -0.041,-7.328125 -0.0603,-2.52923 -0.10686,-5.06016 -0.40234,-7.576172 -0.26797,-2.982909 -0.41873,-5.960081 -0.30274,-8.957031 0.009,-2.179619 0.0119,-4.361371 0.11328,-6.539063 0.0929,-0.02391 0.18428,-0.05302 0.27735,-0.07617 1.19506,-0.26756 2.34702,-0.681726 3.45508,-1.197265 2.70909,-1.454725 3.21418,-1.780524 6.01171,-3.4375 7.64361,-4.363166 2.66547,-1.693111 6.08008,-3.53125 0.13524,-0.127363 0.27098,-0.255443 0.40625,-0.382813 l -7.4375,2.960938 c 0.49222,-0.385173 0.98612,-0.787519 1.47656,-1.203125 0.7439,-0.427901 1.49203,-0.848724 2.23438,-1.279297 0.0956,-0.05546 -0.14625,0.06529 -0.30078,0.140625 -0.006,0.0033 -0.0118,0.0065 -0.0176,0.0098 -0.13101,0.064 -0.16558,0.07663 -0.24805,0.115235 -0.39797,0.250354 -0.80813,0.45375 -1.22461,0.642578 1.03583,-0.891255 2.1202,-1.861995 3.39063,-2.960938 1.91,-1.908151 3.91645,-3.742079 5.65625,-5.810547 1.11237,-1.423218 1.83644,-2.970945 2.18359,-4.734374 0.0636,-1.558232 -0.3266,-2.947972 -1.375,-4.101563 -1.31311,-1.26565 -2.92122,-2.056219 -4.63281,-2.625 -1.62879,-0.495409 -3.32692,-0.576432 -5.01562,-0.619141 -2.16384,-0.02052 -4.3264,0.02348 -6.49024,0.02148 -2.33191,-0.02494 -4.65995,-0.02264 -6.98437,0.175781 -2.74786,0.328271 -5.4395,0.966483 -8.11914,1.638672 -2.24177,0.578801 -4.45822,1.246113 -6.62696,2.05664 -1.62196,0.49262 -3.13482,1.239337 -4.63086,2.023438 -4.83413,2.569138 -9.88154,5.080972 -13.90039,8.871094 -1.72452,1.632019 -3.14138,3.580742 -4.16406,5.720703 -0.79007,1.708418 -0.65121,3.347934 -0.004,5.058594 1.04973,1.76615 2.67261,3.083652 4.16797,4.458984 1.30059,1.288728 2.88354,1.965094 4.625,2.402344 1.85084,0.534187 3.77095,0.670283 5.6836,0.78125 1.81167,0.09356 3.62593,0.08581 5.43945,0.09375 1.31585,0.09395 2.45749,-0.411312 3.64648,-0.869141 1.33014,-0.552491 2.7035,-0.878159 4.11719,-1.125 1.36749,-0.319937 2.7307,-0.639913 4.08594,-1.007812 1.44272,-0.28921 2.87513,-0.567593 4.26953,-1.046875 0.50231,-0.156098 1.00613,-0.310616 1.50977,-0.464844 l -6.96094,3.546875 c 0.13353,2.318649 0.12298,4.643053 0.13281,6.964844 -0.0799,3.020447 0.10239,6.026924 0.34375,9.035156 0.19412,2.507667 0.30022,5.020413 0.33008,7.535156 0.0106,2.442777 0.0308,4.887249 0.0176,7.330078 0.17364,2.064972 0.42474,4.120574 0.55468,6.189453 0.008,0.138625 0.007,0.277347 0.0137,0.416016 l -4.96289,2.529297 c 0.16755,2.15798 -0.67687,4.24412 -1.52735,6.1836 -1.21186,2.75473 -3.0474,5.14434 -4.8418,7.53515 -8.79168,0.16319 -17.58322,0.35688 -26.37304,0.59766 -5.56487,0.25861 -11.11647,0.56919 -16.669924,1.01562 -3.398188,0.27317 -6.78893,0.63971 -10.1875,0.90821 -1.554349,0.12279 -3.111929,0.19766 -4.667968,0.29687 -6.902261,0.46465 -13.861879,0.56873 -20.642579,2.10742 -4.924686,1.0037 -9.77374,2.3508 -14.71875,3.26172 -4.410527,0.7815 -8.848271,1.41905 -13.242187,2.28516 -4.721779,1.21465 -9.405189,2.6516 -13.779297,4.83789 -5.649422,3.14244 -11.503325,6.06562 -16.78125,9.83984 l 9.835937,-3.91211 c 0.149505,-0.10963 0.370621,-0.25493 0.548829,-0.3789 3.919441,-1.85895 8.059915,-3.17261 12.24414,-4.30469 4.348018,-0.94008 8.760544,-1.56164 13.144531,-2.31641 5.006246,-0.90064 9.914441,-2.24636 14.878907,-3.33984 6.868917,-1.61712 13.928606,-1.92013 20.933593,-2.48633 7.384407,-0.67393 14.764116,-1.34201 22.15625,-1.87109 -2.814356,1.34405 -6.571863,3.14834 -7.878906,5.72851 -0.473129,0.93395 -0.607088,1.98259 -0.77539,3 -0.311305,2.24498 0.247425,4.46252 1.113281,6.52149 1.178551,2.2962 3.05244,4.01904 4.923828,5.73633 2.011359,1.87359 3.983735,3.76357 6.224609,5.36132 2.361596,1.67497 4.879586,3.13749 7.498046,4.3711 3.35705,1.79573 7.01116,2.84496 10.67383,3.80273 4.34888,1.21839 8.75068,2.17981 13.23242,2.73438 4.09505,0.42246 8.21549,0.46673 12.32813,0.48828 3.9181,0.0196 7.83584,0.009 11.7539,-0.0137 3.24968,0.0158 6.49631,0.0209 9.74219,-0.0859 0.45616,0.0506 0.91378,0.0904 1.37305,0.12109 1.5929,0.0865 3.18845,0.0896 4.7832,0.0937 0.25718,-0.0125 0.51433,-0.0246 0.77148,-0.0371 l 0.73047,-0.54297 c 0.12506,-0.005 0.24994,-0.0145 0.375,-0.0195 -1.30111,1.46872 -2.61468,2.92681 -3.93164,4.38282 -1.08453,-0.0192 -2.16933,-0.0453 -3.2539,-0.0625 -10.53904,-0.15844 -21.07782,-0.20869 -31.61719,-0.33594 -5.48175,0.007 -10.95374,-0.13615 -16.42578,-0.44531 -4.56094,-0.27202 -9.13168,-0.32616 -13.69922,-0.37696 -4.714021,-0.0297 -9.430035,-0.27886 -14.132814,-0.60156 -4.646332,-0.33509 -9.273105,-0.90228 -13.871094,-1.64453 -3.334518,-0.48418 -6.597765,-1.31465 -9.871093,-2.0918 -2.53457,-0.68184 -5.014202,-1.57957 -7.431641,-2.59961 -3.013013,-1.20429 -6.164458,-2.01837 -9.30664,-2.80664 -2.169532,-0.6087 -4.355651,-1.16384 -6.476563,-1.92969 -1.883955,-0.69491 -3.645885,-1.60438 -5.308594,-2.72265 -1.65685,-1.22735 -3.528887,-1.99122 -5.46289,-2.65235 -2.225775,-0.7002 -4.426917,-1.44943 -6.56836,-2.37695 -1.590807,-1.08497 -3.256843,-1.91189 -5.083984,-2.50195 -1.538774,-0.48724 -2.862685,-1.38444 -4.253906,-2.16602 -0.808419,-0.43015 -1.634641,-0.80196 -2.355469,-1.37109 l -8.9257814,5.57422 c 0.7559773,0.67022 1.6030814,1.09996 2.5058594,1.54492 1.485891,0.72889 2.8025942,1.76054 4.394531,2.2832 1.806788,0.59634 3.565946,1.17986 5.082031,2.39844 2.172874,0.89696 4.36079,1.7287 6.59375,2.4668 1.877606,0.58216 3.696748,1.2691 5.322266,2.40039 1.717731,1.15324 3.442457,2.22734 5.396484,2.95117 2.173289,0.85274 4.466611,1.28873 6.707032,1.92773 3.107289,0.72616 6.219204,1.51728 9.201172,2.66211 2.430882,1.09818 4.92076,2.10233 7.498046,2.79883 3.368686,0.68323 6.701088,1.55379 10.117188,1.99024 4.628553,0.73691 9.286494,1.31914 13.958984,1.6875 4.709658,0.36605 9.439911,0.57874 14.16211,0.66015 4.554566,0.0377 9.108936,0.11616 13.658206,0.35352 5.63042,0.2725 11.25374,0.36977 16.89062,0.17187 10.76429,-0.1381 21.52974,-0.19442 32.29492,-0.16797 1.92294,0.011 3.84655,0.0335 5.76953,0.0488 -1.23299,1.36791 -2.47559,2.72812 -3.73242,4.07617 -2.28418,2.53972 -4.68753,4.94085 -7.14648,7.30664 -1.56167,1.15463 -2.72531,2.65185 -3.6582,4.33204 -0.46122,0.50495 -0.81452,1.07995 -1.13868,1.67382 -1.4871,-0.12544 -2.8676,-0.0563 -4.26562,0.55078 -5.20305,1.93982 -9.6774,4.94266 -14.5332,7.75 -1.69671,1.36674 -3.35402,2.77266 -4.94336,4.26368 -1.47979,1.50791 -3.03168,2.92086 -4.72461,4.18554 -1.47902,1.21751 -3.30522,2.02697 -4.50782,3.54688 -0.68743,1.23753 -1.34154,2.44954 -1.01367,3.88672 0.84314,1.64582 2.74368,1.5664 4.35938,1.6582 1.99342,0.1485 3.97035,0.035 5.94726,-0.22266 1.78537,-0.23903 3.5835,-0.35445 5.38282,-0.41406 1.92772,-0.0522 3.85695,-0.054 5.78515,-0.0449 1.65016,-0.003 3.30227,0.0882 4.94336,-0.11523 4.90907,-0.76839 9.48186,-3.59646 12.91406,-7.16602 0.70836,-0.88148 1.717,-1.43465 2.42774,-2.31445 0.0556,-0.0688 0.8446,-1.22516 0.90039,-1.30664 0.87234,-1.38186 1.07682,-2.85126 0.92969,-4.44141 -0.41803,-1.6377 -1.11959,-3.21007 -2.02735,-4.63477 -0.69797,-1.27946 -1.82242,-2.05637 -3.13281,-2.61132 -0.041,-0.0131 -0.0839,-0.0187 -0.125,-0.0312 2.30491,-1.11867 2.3968,-1.38314 4.36914,-5.17188 0.63773,-1.13741 1.34205,-2.22377 2.07227,-3.30273 0.98333,-1.50782 2.12001,-2.8388 3.52734,-3.98242 2.43203,-2.36213 4.74515,-4.83126 7.04297,-7.32422 0.0301,-0.0331 0.0598,-0.0665 0.0898,-0.0996 12.08067,0.13348 24.15869,0.39696 36.22657,0.99218 8.95148,0.458 17.90725,1.06953 26.86523,1.38282 7.02996,0.24589 10.25775,0.18755 17.26953,0.18554 2.81502,-0.001 5.63029,-0.003 8.44531,-0.004 15.55463,-0.045 31.11048,-0.0996 46.65821,-0.61719 10.96444,-0.41609 21.96836,-0.74737 32.85156,-2.23242 6.01878,-0.86682 11.94441,-2.27875 17.82422,-3.81446 4.715,-1.35906 9.4227,-2.79087 13.94922,-4.70117 3.51681,-1.61966 6.92084,-3.4704 10.37695,-5.21484 5.52669,-2.63458 11.03615,-5.14 16.14062,-8.64063 1.61061,-1.23318 3.12533,-2.6355 4.32813,-4.27734 0.92334,-1.27402 1.91928,-2.50275 2.3418,-4.05273 0.32428,-1.36043 0.20936,-2.75828 0.2207,-4.14844 -0.0318,-1.19281 -0.0434,-2.43458 -0.76563,-3.44531 -1.06023,-1.11879 -2.34179,-2.11708 -3.71875,-2.80274 -1.53233,-0.87111 -3.07876,-1.73207 -4.45507,-2.84375 -1.1065,-0.83907 -2.3806,-1.38822 -3.67188,-1.88476 -1.19554,-0.26441 -2.37082,-0.60536 -3.54883,-0.92579 -1.17029,-0.53783 -2.35455,-1.04901 -3.58789,-1.42968 -1.49325,-0.59537 -2.82747,-1.49315 -4.26562,-2.20313 -1.72906,-0.75408 -3.26046,-1.89517 -5.03907,-2.54687 -4.50973,-1.31969 -9.30803,-1.17665 -13.92578,-1.86524 -3.1807,-0.29535 -6.48358,-0.6406 -9.67187,-0.77148 -8.78491,-0.36059 -17.57871,0.29961 -26.36133,0.39062 -19.25044,0.59331 -38.48714,1.54287 -57.74219,1.98633 -17.25123,0.0146 -34.50277,-0.007 -51.7539,-0.0586 2.53458,-2.87625 5.15226,-5.67943 7.89062,-8.3711 7.41994,-7.37056 14.84337,-14.764031 21.48047,-22.863279 0.84691,-1.057912 1.72369,-2.09291 2.54102,-3.173828 3.25858,-4.3095 5.82079,-9.104755 8.45898,-13.802734 2.61891,-4.868542 5.19363,-9.762499 7.90234,-14.582032 2.03567,-3.402636 4.05096,-6.820598 6.23829,-10.128906 0.37429,-0.576636 0.74578,-1.155358 1.11718,-1.734375 1.66398,-0.192339 3.31827,-0.405327 4.9375,-0.839844 0.56868,-0.159598 1.16729,-0.339232 1.6836,-0.636718 0.65629,-0.378144 1.30805,-0.763874 1.96289,-1.144532 4.59026,-1.930943 8.65691,-4.600178 13.02344,-7.126953 1.41135,-0.949028 2.9218,-1.768495 4.29296,-2.773437 1.38826,-0.761439 2.43938,-1.955405 3.77149,-2.796875 0.9415,-0.826031 1.63776,-1.98676 2.0664,-3.16211 0.36392,-1.297292 0.38131,-2.654926 0.40625,-3.992187 0.0135,-1.42707 0.003,-2.854161 -0.002,-4.28125 -0.005,-1.43026 -0.007,-2.8588025 -0.008,-4.2890626 0.0465,-1.3964485 0.0524,-2.7604123 -0.48242,-4.0683594 -0.75111,-1.2579704 -2.05721,-1.5734061 -3.42383,-1.6738281 z m -7.77344,6.1367187 c 0.7357,-0.02902 1.51009,0.1207352 1.98633,0.6835938 0.46745,1.1778293 0.32504,2.4472626 0.33789,3.6894536 7.6e-4,1.431042 0.003,2.861937 0.008,4.292968 0.005,1.417848 0.0168,2.836357 -0.0195,4.253906 -0.0505,1.230849 -0.0936,2.494423 -0.61719,3.632813 -0.57258,1.031169 -1.21536,2.000787 -2.24609,2.628906 -0.92315,0.722395 -1.82005,1.477716 -2.78125,2.146485 -0.174,0.06778 -0.36341,0.153476 -0.52734,0.210937 -1.44792,0.827655 -1.13037,0.647538 -2.29297,1.3125 -0.21346,0.115063 -0.25775,0.135584 -1.02149,0.5625 -1.6845,0.432941 -3.3283,0.928767 -5.08008,1.058594 -2.022,0.293417 -4.07611,0.236855 -6.0996,0.535156 l -3.9961,3.025391 c -0.82333,-0.0363 -1.67115,-0.121387 -2.33203,-0.621094 -0.64344,-0.88111 -0.76477,-1.885985 -0.50391,-2.941406 0.37753,-1.459317 1.05109,-2.775476 1.99805,-3.955078 1.31603,-1.54241 2.805,-2.896523 4.18359,-4.378907 1.26408,-1.412666 2.54334,-2.806654 4,-4.027343 1.23843,-1.226381 2.52955,-2.387551 3.79297,-3.587891 1.60599,-1.460118 3.03932,-3.064975 4.6211,-4.546875 1.26979,-1.112934 2.52063,-2.25209 3.83789,-3.3085938 0.67103,-0.2315526 1.34851,-0.4405747 2.04101,-0.5859374 0.22383,-0.040876 0.46571,-0.070405 0.71094,-0.080078 z m -5.16797,1.578125 c -1.04493,0.6004634 -0.45204,0.2672169 -1.83789,1.0605464 -0.495,0.283371 0.96582,-0.608204 1.4668,-0.8808589 0.12048,-0.065577 0.24666,-0.1218133 0.37109,-0.1796875 z M 154.35352,33.638672 c 2.13513,-0.01247 4.26919,0.0031 6.40429,0.01367 1.62553,0.01864 3.26526,0.03638 4.86133,0.382812 1.58755,0.413122 3.07199,1.052098 4.27734,2.199219 0.85693,0.856842 1.09305,1.994661 0.89844,3.181641 -0.43254,1.581301 -1.23168,2.975689 -2.29297,4.228515 -1.76716,1.969452 -3.64653,3.842168 -5.5957,5.63086 -0.57504,0.50751 -1.14216,1.028638 -1.7207,1.537109 -0.89932,0.296253 -1.80622,0.556198 -2.76758,0.630859 -1.37248,0.312832 -2.70789,0.741095 -4.08789,1.025391 -1.36093,0.405468 -2.84583,0.324152 -4.125,1.033203 -1.2249,0.309339 -2.24059,1.05757 -3.51953,1.173828 -0.71027,0.0035 -1.42058,-0.01098 -2.13086,-0.01172 0.52884,-0.131773 1.05513,-0.285517 1.58008,-0.46289 1.97517,-0.64351 3.8362,-1.544589 5.66211,-2.523438 4.54273,-2.742689 9.90226,-4.718771 13.54882,-8.732422 1.257,-1.660697 1.30533,-3.062817 0.29688,-4.835937 -0.90652,-1.286619 -1.9586,-2.300579 -3.40235,-2.935547 -0.22858,-0.06935 -0.45696,-0.139592 -0.68554,-0.208984 L 155.75,38.972656 c -0.89401,0.04988 -1.78419,0.138554 -2.67383,0.304688 -5.22182,1.750129 -10.29394,4.53823 -14.38476,8.24414 -1.74562,1.48571 -3.22009,2.127866 -2.95703,4.660157 0.52544,1.308094 1.54417,1.93816 2.7246,2.304687 -0.92166,-0.0893 -1.83674,-0.23146 -2.73632,-0.46875 -1.58827,-0.4346 -3.16611,-0.728475 -4.39454,-1.945312 -1.36552,-1.258322 -2.86161,-2.457153 -3.86328,-4.039063 -0.46294,-1.511278 -0.42176,-2.870202 0.34766,-4.294922 1.09379,-2.012061 2.49602,-3.83368 4.24023,-5.330078 0.22207,-0.184637 0.44947,-0.36025 0.67383,-0.541015 0.0261,-0.0074 0.05,-0.02017 0.0762,-0.02734 2.18523,-0.833942 4.374,-1.631258 6.64063,-2.22461 2.6515,-0.64261 5.28254,-1.380106 7.99609,-1.730468 2.3025,-0.254249 4.59794,-0.27822 6.91407,-0.246094 z m 0.24804,7.876953 c 0.77103,0.436539 1.38563,1.052348 1.94532,1.845703 0.79051,1.34462 0.19204,2.535653 -0.8418,3.583984 -0.23089,0.213452 -0.46896,0.413488 -0.70508,0.617188 -0.21672,0.08417 -0.42739,0.180509 -0.64844,0.255859 -1.78091,0.589618 -3.52208,1.344392 -5.45117,1.072266 -1.29473,-0.13482 -3.18745,-0.14255 -3.81836,-1.498047 0.0926,-0.87646 0.60363,-1.539027 1.23828,-2.11914 1.08457,-0.175173 2.17893,-0.23708 3.29492,-0.134766 z m 6.49024,2.949219 c 0.13393,-0.07726 -0.19508,0.114825 -1.18164,0.693359 -0.0522,0.02725 -0.10412,0.05465 -0.15625,0.08203 0.64797,-0.375762 1.22546,-0.71054 1.33789,-0.775389 z m -16.32618,0.984375 c -0.96437,0.552126 -1.3359,0.77518 -2.58203,1.482422 -1.03762,0.588906 2.0117,-1.325992 2.58203,-1.482422 z m 20.44922,3.68164 -0.90234,0.720703 c -0.26452,0.07736 -0.53139,0.151195 -0.79688,0.226563 0.49595,-0.275289 1.34497,-0.749867 1.69922,-0.947266 z m 79.54493,22.626953 c -0.33326,0.594052 -0.66627,1.187301 -1.00391,1.779297 l -6.77539,2.640625 c 4.02219,-2.301561 6.47396,-3.68232 7.7793,-4.419922 z m -1.50586,2.669922 c -1.07676,1.864577 -2.1865,3.708927 -3.375,5.5 -1.6599,2.501469 -2.54773,3.509499 -4.45313,5.910157 -6.44924,8.03218 -13.75622,15.299419 -21.03906,22.562499 -1.61012,1.60289 -3.17476,3.24882 -4.71484,4.91602 -2.23371,-0.008 -4.46748,-0.008 -6.70118,-0.0176 -14.5227,-0.0374 -29.04578,-0.0878 -43.56836,0.004 0.19281,-1.28691 0.305,-2.58289 0.25,-3.89062 0.003,-2.36185 -0.004,-4.72419 0.0195,-7.08594 0.0212,-1.85407 0.0352,-3.7083 0.0332,-5.562498 0.009,-1.557551 -0.0297,-3.115127 -0.1582,-4.667969 -0.16109,-1.787694 -0.39501,-3.568533 -0.53907,-5.357422 1.76231,0.367504 3.51169,0.794012 5.26563,1.199219 3.00346,0.613421 6.0042,1.250776 9.01367,1.835938 2.91441,0.69273 5.84713,1.228239 8.83008,1.501953 2.46091,0.16058 4.92379,0.126283 7.35547,0.576171 1.6661,0.306369 3.14984,1.13749 4.66601,1.84961 1.12934,0.483326 2.37082,0.885654 3.51563,0.228516 1.44859,-0.831514 2.88761,-1.679367 4.33008,-2.521485 -0.0207,0.01319 -0.0418,0.02585 -0.0625,0.03906 -0.53452,0.340769 1.15678,-0.51905 1.73828,-0.771485 0.61059,-0.265062 1.22231,-0.527946 1.83789,-0.78125 0.66971,-0.27555 1.34503,-0.536152 2.01757,-0.804687 4.16267,-1.782471 8.52901,-2.984463 12.82618,-4.382813 2.94138,-1.082479 5.93055,-2.04715 8.85742,-3.167969 2.36325,-0.931491 4.72403,-1.880087 6.98437,-3.042968 3.18402,-1.725431 3.38059,-1.884062 7.07032,-4.06836 z m -33.92774,12.636719 c -0.41601,0.247754 -0.83736,0.486776 -1.25586,0.730469 0.0382,-0.02463 0.0746,-0.05228 0.11328,-0.07617 0.37333,-0.23054 1.51955,-0.878801 1.14258,-0.654297 z m -3.49805,0.255859 c 0.1929,-0.10933 -0.36839,0.248098 -0.54296,0.384766 -0.16193,0.126758 -0.27939,0.315516 -0.46485,0.404297 -0.17085,0.0818 -0.35395,0.104783 -0.54101,0.103516 0.5171,-0.296148 1.0304,-0.598749 1.54882,-0.892579 z M 150.4082,106.62695 c 0.001,0.1393 5.5e-4,0.27867 0.002,0.41797 0.0183,2.11165 0.0114,4.22226 0.0117,6.33399 -1.71762,0.0224 -3.43481,0.061 -5.15235,0.0879 0.96672,-1.20761 1.92271,-2.42564 2.85156,-3.66407 0.78169,-1.04277 1.55199,-2.09774 2.28711,-3.17578 z m 186.51953,9.48047 c 2.14479,0.019 4.2875,0.0752 6.42969,0.19141 3.50427,0.19012 5.89919,0.51853 9.33399,0.91992 4.34354,0.67584 8.78118,1.0054 13.00586,2.28516 1.74009,0.57719 3.24937,1.6402 4.87109,2.46679 1.45425,0.69049 2.81921,1.54848 4.27539,2.23438 1.17683,0.47075 2.37331,0.90085 3.51953,1.44336 1.17872,0.5196 2.4565,0.7667 3.70117,1.08203 1.20677,0.36507 2.3901,0.85876 3.44727,1.54883 1.45243,1.08115 3.01025,2.00061 4.58594,2.88672 1.31308,0.62435 2.44557,1.5451 3.42382,2.61132 0.49055,0.80922 0.41275,1.83914 0.43164,2.75391 -0.0249,1.29953 0.20438,2.61573 -0.38867,3.81055 -0.47096,1.4197 -1.53964,2.55531 -2.41797,3.74609 -0.54078,0.62389 -1.1176,1.2411 -1.72265,1.82813 -0.36586,0.17882 -0.83927,0.41309 -1.13672,0.55664 -3.50502,1.75976 -6.9652,3.60485 -10.49414,5.3164 -4.50422,2.04315 -9.23915,3.50633 -13.9707,4.91602 -5.90831,1.64179 -11.88803,3.05103 -17.9375,4.06054 -11.10003,1.88424 -22.3765,2.33912 -33.60157,2.91407 -15.65354,0.69454 -31.32592,0.80513 -46.99218,0.90234 -2.83031,0.0131 -5.65992,0.0292 -8.49024,0.0391 -6.62054,0.0232 -10.68565,0.0738 -17.31836,-0.12695 -8.9828,-0.27188 -17.96402,-0.85358 -26.93945,-1.29687 -12.73927,-0.64742 -25.48671,-1.05793 -38.23828,-1.32618 1.12391,-1.2674 2.24473,-2.53667 3.35937,-3.8125 0.25387,-0.28473 0.50458,-0.57215 0.75782,-0.85742 0.30532,-0.006 0.61066,-0.0198 0.91601,-0.0254 4.28533,-0.0565 8.56981,-0.0663 12.85547,-0.0742 4.35656,0.10553 8.70368,-0.0573 13.05273,-0.28515 3.28209,-0.18252 6.56676,-0.2788 9.85352,-0.31055 1.63308,-0.0152 0.83259,-0.0117 2.40039,-0.0137 l 8.38281,-6.09961 c -1.59899,0.02 -0.78414,0.009 -2.44336,0.0312 -3.3602,0.0821 -6.71962,0.20561 -10.07422,0.42187 -2.57957,0.15496 -5.1576,0.27629 -7.73828,0.33594 2.06936,-0.65803 4.16064,-1.24642 6.27149,-1.75781 5.33486,-1.22275 10.78641,-1.8516 16.22265,-2.42969 2.71487,-0.31092 5.45243,-0.61455 8.03711,-1.54102 4.95967,-2.10514 9.47954,-5.097 14.05078,-7.92968 2.70598,-1.71329 5.36476,-3.48915 8.03711,-5.25782 2.1396,-1.4231 4.3171,-2.81962 5.67969,-5.04687 1.11636,-2.18463 -0.3857,-4.02456 -1.85742,-5.56641 -1.67001,-1.75339 -3.81102,-2.60355 -6.08203,-3.26367 -0.82083,-0.21352 -1.6454,-0.40265 -2.47071,-0.58789 2.32553,0.002 4.65104,-0.003 6.97657,0 19.04453,-0.4595 38.08143,-1.16277 57.1289,-1.51562 6.4296,0.038 12.8723,-0.23474 19.30664,-0.17774 z m -237.574214,3.76172 c -0.179161,0.11792 -0.317939,0.21172 -0.564454,0.36719 0.17549,-0.14686 0.314406,-0.23924 0.476563,-0.36133 0.0293,-0.002 0.05859,-0.004 0.08789,-0.006 z m 93.390624,1.53125 c 1.96883,0.0112 3.93821,0.0505 5.90625,0.0644 1.25502,0.0323 2.51095,0.0787 3.76563,0.13672 -2.93943,3.49948 -5.81994,7.05077 -8.67579,10.61524 -3.38536,4.07412 -6.62987,8.26775 -10.01757,12.33789 -1.98121,2.40512 -4.12458,4.67668 -6.22071,6.98437 -0.77425,0.0425 -1.54867,0.0853 -2.32226,0.14063 -0.49296,0.029 -0.98563,0.0454 -1.47852,0.0684 -1.40393,-0.0771 -2.80442,-0.21913 -4.16211,-0.61133 -1.50977,-0.42984 -3.00924,-0.89611 -4.59375,-0.91992 -1.32536,-0.17478 -2.58374,-0.5515 -3.875,-0.85938 -1.32256,-0.26856 -2.60787,-0.53155 -3.9707,-0.47656 -1.81172,-0.17131 -3.56346,-0.6023 -5.27734,-1.21875 -3.59367,-0.95138 -7.12008,-2.16048 -10.57813,-3.52149 -2.14793,-0.95496 -4.34519,-1.88719 -6.4082,-3.01953 -1.34618,-0.73887 -2.32649,-1.47632 -3.64063,-2.25586 -0.51925,-0.30802 -1.05894,-0.58397 -1.58789,-0.875 -0.57548,-0.30509 -4.01251,-1.99226 -4.19336,-2.64062 -0.0197,-0.0704 0.0536,-0.13502 0.0801,-0.20313 0.98734,-1.44833 2.33779,-2.62287 3.54688,-3.8789 1.87644,-1.82542 3.77428,-3.6291 5.61914,-5.48633 1.39848,-1.41065 2.76525,-2.85275 4.07226,-4.3457 1.06699,10e-4 2.13418,0.0102 3.20117,0.006 2.36995,0.002 4.73944,-0.006 7.10938,-0.0117 -0.3218,0.93376 -0.55409,1.89117 -0.68945,2.88086 -0.14952,1.44115 -0.15682,2.89259 -0.13868,4.33984 -0.27669,1.89439 -0.45778,3.79938 -0.55468,5.71094 -0.0206,0.9696 -0.0588,1.91545 -0.23047,2.86914 l 1.80859,-0.89258 c -0.29152,1.1674 -0.25037,2.31532 0.15625,3.47266 0.66905,1.37971 1.71382,2.55527 2.91602,3.49414 1.51031,0.83794 3.27318,1.02117 4.94922,1.33008 1.91563,0.37421 3.8755,0.0981 5.80273,-0.0391 1.66693,-0.0427 3.299,-0.19772 4.87891,-0.74609 1.42538,-0.65579 2.79707,-1.38778 4.27734,-1.91602 4.40952,-1.6959 10.45808,-3.03653 11.61328,-7.91992 7.4e-4,-0.022 -0.003,-0.0425 -0.002,-0.0644 0.087,-0.0441 0.0588,-0.0398 0,-0.008 0.0398,-1.54104 -0.29621,-2.92213 -1.14063,-4.21289 -1.0763,-1.34894 -2.42153,-2.47092 -3.80273,-3.4961 -1.51785,-1.10847 -3.2741,-1.35573 -5.0957,-1.48242 -1.44861,-0.0626 -0.71498,-0.0381 -2.20118,-0.0664 l -2.92773,2.11914 c -1.41536,0.0167 -2.8316,0.008 -4.24609,0.0606 -1.31973,0.0815 -2.5969,0.47338 -3.76954,1.07422 -0.75141,1.59074 -2.17073,2.47055 -3.76367,3.15234 0.0207,-0.46403 0.0485,-0.92782 0.0703,-1.39257 0.1434,-1.94059 0.40527,-3.86427 0.59961,-5.79883 0.0178,-0.8112 0.0278,-1.6246 0.0703,-2.43555 1.98372,0.0278 3.96652,0.0738 5.94922,0.15039 3.79101,0.16271 7.57906,0.52067 11.375,0.44727 3.96815,-0.0948 7.93387,-0.26014 11.89257,-0.55664 1.96635,-0.0976 3.93547,-0.11475 5.9043,-0.10352 z m -73.44531,0.0156 c 4.10075,-0.0314 8.20002,9.4e-4 12.30078,0.006 0.34828,0.001 0.69664,4.9e-4 1.04492,0.002 -0.21626,0.26046 -0.43314,0.51997 -0.64844,0.78125 -1.97786,2.76891 -4.43303,5.11863 -6.83007,7.50976 -1.90966,1.83738 -3.76309,3.74743 -5.75391,5.49805 -1.17236,1.40523 -2.77895,2.54564 -3.5332,4.24609 0.0519,0.25443 0.0494,0.52704 0.15625,0.76368 0.72333,1.60193 3.55689,2.67859 5.01562,3.39062 0.54595,0.27432 1.09874,0.53459 1.63672,0.82422 0.60508,0.32577 1.19432,0.68061 1.79102,1.02148 0.63953,0.37479 1.26602,0.77226 1.91796,1.125 2.11431,1.14397 4.33524,2.1009 6.52735,3.08204 1.38243,0.58091 2.7796,1.12825 4.18359,1.65625 -3.85827,-0.49845 -7.66373,-1.26806 -11.40039,-2.39063 -3.57123,-0.94089 -7.15519,-1.94647 -10.39844,-3.76562 -2.57483,-1.20119 -5.07061,-2.58896 -7.40234,-4.21485 -2.21305,-1.56404 -4.11879,-3.45442 -6.12305,-5.27148 -1.75171,-1.61078 -3.5379,-3.23409 -4.613278,-5.40039 -0.792881,-1.90192 -1.24911,-3.92459 -0.824219,-5.98047 0.145558,-0.63481 0.210236,-1.02254 0.423828,-1.54688 2.049037,-0.53235 4.063229,-1.03944 6.195309,-1.13281 2.37736,-0.30247 4.7908,-0.0594 7.18164,-0.15039 3.05104,-0.002 6.10149,-0.0199 9.15235,-0.0527 z m 88.24219,0.58984 c 0.50115,0.0589 1.00226,0.1095 1.50195,0.18359 2.87862,0.42817 5.7554,0.88562 8.66992,0.97852 1.84923,0.17411 3.68007,0.58036 5.54102,0.46289 1.82911,-0.0682 3.66154,-0.17286 5.47265,-0.44922 2.11258,-0.30032 4.22365,-0.32164 6.35742,-0.26562 2.00484,0.017 4.01192,0.009 6.01172,0.17187 2.15092,0.2136 4.24345,0.65859 6.3418,1.16602 2.11778,0.54963 4.20181,1.20495 5.7832,2.80273 1.35428,1.36537 2.33894,2.51816 1.13086,4.33594 -1.50788,1.93832 -3.6155,3.22934 -5.62304,4.59765 -1.65351,1.10972 -3.32198,2.18978 -4.99805,3.26172 -2.43002,0.95406 -4.9725,1.4566 -7.57813,1.76758 -5.47449,0.64259 -10.96587,1.30149 -16.36914,2.40039 -3.69869,0.7986 -7.30357,1.88462 -10.91406,3.00977 l -6.08789,4.78711 c -0.82064,3.3e-4 -1.64143,0.001 -2.46289,-0.0176 -4.27377,-0.006 -8.54866,-0.0244 -12.82227,0.0273 -1.29075,0.0191 -2.58042,0.0565 -3.87109,0.0879 1.07695,-1.22277 2.15039,-2.44917 3.23633,-3.66406 2.13069,-2.30529 4.28262,-4.60275 6.20898,-7.08398 3.13969,-4.00878 6.24735,-8.04264 9.36328,-12.07032 1.68439,-2.1764 3.38356,-4.34344 5.10743,-6.49023 z m -44.49805,6.35937 c 0.14742,-0.021 -0.6019,0.50918 -2.63281,1.70899 1.15826,-0.94424 2.45237,-1.68331 2.63281,-1.70899 z m 1.73633,2.43555 c 0.15578,0.004 0.19069,0.002 0.55859,0.0117 1.63444,0.0848 3.28689,0.15424 4.72461,1.0332 1.31865,0.8937 2.54062,1.96358 3.5625,3.1836 0.59315,0.90495 0.8958,1.93076 0.75781,2.99609 -0.94246,0.25248 -1.91654,0.36982 -2.92578,0.37695 -1.87146,0.14109 -3.77389,0.44578 -5.64258,0.23828 -1.55506,-0.2513 -3.12488,-0.5288 -4.63086,-0.98046 -1.10239,-0.69721 -2.02395,-1.7213 -2.55664,-2.91602 -0.16915,-0.61596 -0.20335,-1.2223 -0.11718,-1.81641 1.08247,0.002 2.16925,0.0583 3.24804,0.0684 z m -146.802738,0.0234 c -0.06163,0.0437 -1.060295,0.64971 -2.02539,1.23633 1.108265,-0.68507 2.121954,-1.30487 2.02539,-1.23633 z m 128.234378,57.5625 c -0.0652,0.0645 -0.12914,0.12921 -0.20508,0.18555 -0.18075,0.13406 -0.80059,0.40843 -0.60742,0.29296 0.26978,-0.16128 0.54234,-0.31786 0.8125,-0.47851 z m -7.16016,1.87695 c 0.37399,-0.007 0.78912,0.0287 1.27539,0.10938 0.92336,-0.0487 1.82371,0.14601 2.72266,0.26172 l -1.98438,1.37304 c 1.0243,0.23435 2.03891,0.47593 3.07617,0.64453 1.16272,0.35102 2.15689,0.97769 2.77735,2.05078 0.86507,1.24088 1.50443,2.65869 1.75781,4.15626 0.041,1.39896 -0.37036,2.65467 -1.22266,3.77929 -0.15578,0.20395 -0.32813,0.39083 -0.49609,0.58203 -0.86996,0.045 -1.74297,0.0409 -2.62891,0.0215 -1.92983,0.007 -3.85938,-0.007 -5.78906,0.0137 -1.8271,0.036 -3.65301,0.10776 -5.46679,0.34961 -1.94824,0.23924 -3.87427,0.54655 -5.84766,0.36914 -0.92724,-0.0342 -2.76511,0.13504 -3.47656,-0.5332 -0.0701,-1.11235 0.71103,-2.15966 1.37304,-2.98243 1.38974,-1.22751 3.00752,-2.16574 4.44141,-3.33984 1.6616,-1.33729 3.20059,-2.8005 4.73047,-4.28516 0.62443,-0.56814 1.26438,-1.12201 1.9082,-1.66992 1.07334,-0.53577 1.8189,-0.88234 2.84961,-0.90039 z"
       inkscape:connector-curvature="0" />
  </g>
</svg>
