<?xml version="1.0" encoding="UTF-8" standalone="no"?>
<!-- Created with Inkscape (http://www.inkscape.org/) -->

<svg
   xmlns:dc="http://purl.org/dc/elements/1.1/"
   xmlns:cc="http://creativecommons.org/ns#"
   xmlns:rdf="http://www.w3.org/1999/02/22-rdf-syntax-ns#"
   xmlns:svg="http://www.w3.org/2000/svg"
   xmlns="http://www.w3.org/2000/svg"
   xmlns:sodipodi="http://sodipodi.sourceforge.net/DTD/sodipodi-0.dtd"
   xmlns:inkscape="http://www.inkscape.org/namespaces/inkscape"
   width="58.727398mm"
   height="31.90098mm"
   viewBox="0 0 58.727398 31.900979"
   version="1.1"
   id="svg8"
   inkscape:version="0.92.3 (unknown)"
   sodipodi:docname="logo.svg">
  <defs
     id="defs2" />
  <sodipodi:namedview
     id="base"
     pagecolor="#ffffff"
     bordercolor="#666666"
     borderopacity="1.0"
     inkscape:pageopacity="0.0"
     inkscape:pageshadow="2"
     inkscape:zoom="0.98994949"
     inkscape:cx="147.50054"
     inkscape:cy="-215.64047"
     inkscape:document-units="mm"
     inkscape:current-layer="layer1"
     showgrid="false"
     inkscape:window-width="1920"
     inkscape:window-height="1056"
     inkscape:window-x="0"
     inkscape:window-y="24"
     inkscape:window-maximized="1" />
  <metadata
     id="metadata5">
    <rdf:RDF>
      <cc:Work
         rdf:about="">
        <dc:format>image/svg+xml</dc:format>
        <dc:type
           rdf:resource="http://purl.org/dc/dcmitype/StillImage" />
        <dc:title></dc:title>
      </cc:Work>
    </rdf:RDF>
  </metadata>
  <g
     inkscape:label="Layer 1"
     inkscape:groupmode="layer"
     id="layer1"
     transform="translate(-19.448512,-31.003617)">
    <path
       style="fill:none;fill-opacity:1;stroke:#7cd7f7;stroke-width:1.00012493;stroke-linejoin:bevel;stroke-miterlimit:4;stroke-dasharray:none;stroke-dashoffset:0;stroke-opacity:1;paint-order:markers fill stroke"
       id="path831"
       d="m 25.551546,32.326349 c -0.07562,2.452669 -0.100655,4.906465 -0.122678,7.360079 0.0257,4.420653 -0.05026,8.835938 -0.285329,13.25037 -0.21446,2.766476 -0.604053,5.350351 -1.712167,7.901715 0,0 -3.535522,1.611037 -3.535522,1.611037 v 0 c 0.266744,-0.5339 0.503121,-0.977373 0.715212,-1.545867 0.756789,-2.028524 1.045914,-4.187577 1.2713,-6.328513 0.266519,-4.401812 0.358619,-8.805887 0.262745,-13.215583 -0.02185,-2.411945 -0.04625,-4.8241 -0.122678,-7.235063 0,0 3.529117,-1.798175 3.529117,-1.798175 z"
       inkscape:connector-curvature="0" />
    <path
       style="fill:none;fill-opacity:1;stroke:#7cd7f7;stroke-width:1.00012493;stroke-linejoin:bevel;stroke-miterlimit:4;stroke-dasharray:none;stroke-dashoffset:0;stroke-opacity:1;paint-order:markers fill stroke"
       id="path833"
       d="m 25.65319,35.094185 c 0.800132,1.14151 1.723099,2.186122 2.645003,3.228729 1.056468,1.295601 2.318133,2.364927 3.686087,3.313366 1.136552,0.642236 2.280203,1.279353 3.493122,1.76694 0.153736,0.05136 0.30747,0.10273 0.461203,0.154096 0,0 -3.254581,2.197016 -3.254581,2.197016 v 0 c -0.154374,-0.05947 -0.30875,-0.118941 -0.463124,-0.178414 -1.210212,-0.535562 -2.382679,-1.160899 -3.507653,-1.857417 -1.373312,-0.985735 -2.645844,-2.083073 -3.725689,-3.391776 -0.948395,-1.04534 -1.853302,-2.125776 -2.747072,-3.217987 0,0 3.412704,-2.014553 3.412704,-2.014553 z"
       inkscape:connector-curvature="0" />
    <path
       style="fill:none;fill-opacity:1;stroke:#7cd7f7;stroke-width:1.00012493;stroke-linejoin:bevel;stroke-miterlimit:4;stroke-dasharray:none;stroke-dashoffset:0;stroke-opacity:1;paint-order:markers fill stroke"
       id="path835"
       d="m 34.175001,45.531412 c 0.868738,-0.916545 1.720138,-1.850215 2.546932,-2.804908 0.838912,-1.004599 1.680562,-2.006375 2.432754,-3.078269 0.55916,-0.729379 1.042342,-1.511051 1.498931,-2.307293 0,0 3.586652,-1.600949 3.586652,-1.600949 v 0 c -0.451943,0.812104 -0.928677,1.618626 -1.506371,2.348489 -0.739026,1.094994 -1.584862,2.10325 -2.424555,3.121777 -0.815773,0.942652 -1.662472,1.856896 -2.472473,2.804358 0,0 -3.66187,1.516795 -3.66187,1.516795 z"
       inkscape:connector-curvature="0" />
    <path
       style="fill:none;fill-opacity:1;stroke:#7cd7f7;stroke-width:1.00012493;stroke-linejoin:bevel;stroke-miterlimit:4;stroke-dasharray:none;stroke-dashoffset:0;stroke-opacity:1;paint-order:markers fill stroke"
       id="path837"
       d="m 45.08265,32.876619 c 0.156636,1.741083 0.554482,3.45159 0.94176,5.153068 0.502971,2.08412 0.854951,4.201577 1.128321,6.326933 0.182629,1.556761 0.246007,3.123827 0.293349,4.689483 -0.03182,0.680987 0.0654,1.345044 0.175226,2.013143 0.114853,0.612854 0.297847,1.208924 0.425386,1.818677 0.14128,0.699916 0.186256,1.411888 0.209677,2.123744 -0.03733,0.639048 0.127776,1.242912 0.30529,1.847567 0.137676,0.56532 0.277294,1.130083 0.377415,1.703628 0.01439,0.10323 0.02879,0.206463 0.04319,0.309693 0,0 -3.502861,1.842187 -3.502861,1.842187 v 0 c -0.01191,-0.09914 -0.02379,-0.198284 -0.0357,-0.297428 -0.08932,-0.561557 -0.241311,-1.10617 -0.360746,-1.661155 -0.178829,-0.635968 -0.375812,-1.269727 -0.342191,-1.940615 -0.01643,-0.690439 -0.04674,-1.382877 -0.173641,-2.063433 -0.128296,-0.614585 -0.317997,-1.213305 -0.452186,-1.826919 -0.103844,-0.69393 -0.2139,-1.381347 -0.151556,-2.087348 -0.0043,-1.563584 -0.04639,-3.128576 -0.213931,-4.684392 -0.248222,-2.1169 -0.582102,-4.228081 -1.098913,-6.297472 -0.396163,-1.704491 -0.791649,-3.410829 -1.073922,-5.138706 0,0 3.506033,-1.830655 3.506033,-1.830655 z"
       inkscape:connector-curvature="0" />
    <path
       style="fill:none;fill-opacity:1;stroke:#7cd7f7;stroke-width:1.00012493;stroke-linejoin:bevel;stroke-miterlimit:4;stroke-dasharray:none;stroke-dashoffset:0;stroke-opacity:1;paint-order:markers fill stroke"
       id="path839"
       d="m 59.249288,35.246913 c 0.07109,1.683348 0.324998,3.346508 0.608695,5.004559 0.352849,1.95371 0.649658,3.91147 0.801759,5.891332 0.112332,1.597427 0.132334,3.199386 0.148302,4.800094 0.0053,0.960252 0.01532,1.92047 0.02109,2.88072 0.0032,0.567293 0.0035,1.134597 0.0037,1.701898 -0.0056,0.603194 -0.0031,1.206428 -0.0021,1.809639 0.0425,0.541472 -0.103707,1.040124 -0.30692,1.533459 -0.172074,0.320664 -0.07479,0.165854 -0.292774,0.463841 0,0 -3.649136,1.548762 -3.649136,1.548762 v 0 c 0.235111,-0.241885 0.124155,-0.119084 0.333824,-0.367538 0.224796,-0.429099 0.412295,-0.887082 0.386395,-1.380593 0.0011,-0.602618 0.0035,-1.205259 -0.0019,-1.807864 5.29e-4,-0.569653 0.0019,-1.139311 0.0081,-1.708933 0.01095,-0.967973 0.02837,-1.935895 0.03009,-2.903953 0.0038,-1.599044 -7.93e-4,-3.199058 -0.09656,-4.795877 -0.143002,-1.970807 -0.416332,-3.922519 -0.765844,-5.867392 -0.294963,-1.648679 -0.569111,-3.297483 -0.735602,-4.965176 0,0 3.50874,-1.836978 3.50874,-1.836978 z"
       inkscape:connector-curvature="0" />
    <path
       style="fill:none;fill-opacity:1;stroke:#7cd7f7;stroke-width:1.00012493;stroke-linejoin:bevel;stroke-miterlimit:4;stroke-dasharray:none;stroke-dashoffset:0;stroke-opacity:1;paint-order:markers fill stroke"
       id="path841"
       d="m 54.984551,37.507388 c 0.574556,-1.027104 1.307521,-1.943089 2.151439,-2.758884 1.828001,-1.46409 3.860188,-2.88939 6.218478,-3.169155 1.261414,-0.08515 2.528633,-0.104072 3.79054,-0.02764 1.54178,0.143491 3.030108,0.59006 4.497945,1.060762 1.000977,0.299924 1.903431,0.787617 2.541818,1.625293 0.540599,0.960977 0.523034,2.073019 0.430429,3.139004 -0.152704,1.068223 -0.550029,2.15066 -1.308507,2.946492 -0.176527,0.185222 -0.384963,0.337161 -0.577445,0.505743 -1.931522,1.138444 -3.820155,2.524213 -6.035569,3.073461 -1.475396,0.365779 -3.01825,0.475015 -4.522423,0.659538 -2.334731,0.258196 -4.679127,0.412675 -7.022438,0.567436 0,0 3.025979,-2.226149 3.025979,-2.226149 v 0 c 2.330717,-0.123576 4.661654,-0.270005 6.978097,-0.566272 1.523706,-0.204099 3.075839,-0.348758 4.558445,-0.778192 0.360725,-0.104484 0.714513,-0.233641 1.062225,-0.375539 0.308661,-0.125963 1.182365,-0.611026 0.904375,-0.427019 -0.825629,0.546494 -1.701996,1.012171 -2.552991,1.518258 0.19857,-0.142867 0.41252,-0.266483 0.595712,-0.428598 0.781839,-0.69188 1.211657,-1.72941 1.399508,-2.730633 0.10332,-0.962572 0.145717,-1.980591 -0.322326,-2.861976 -0.597648,-0.768356 -1.46885,-1.162508 -2.382342,-1.448467 -1.436156,-0.479674 -2.905157,-0.897625 -4.425654,-0.982737 -1.257112,-0.03879 -2.522109,-0.03706 -3.772746,0.110131 -0.418452,0.07867 -0.568577,0.08961 -0.965182,0.22947 -0.152019,0.05361 -0.583816,0.269928 -0.446797,0.185015 5.374138,-3.330477 3.080176,-1.868823 1.949649,-1.079389 -0.859959,0.751208 -1.589551,1.61529 -2.161281,2.607252 0,0 -3.608938,1.632799 -3.608938,1.632799 z"
       inkscape:connector-curvature="0" />
    <path
       style="fill:none;fill-opacity:1;stroke:#7cd7f7;stroke-width:1.00012493;stroke-linejoin:bevel;stroke-miterlimit:4;stroke-dasharray:none;stroke-dashoffset:0;stroke-opacity:1;paint-order:markers fill stroke"
       id="path843"
       d="m 62.807905,45.561326 c 0.711189,1.605608 1.629262,3.084423 2.657382,4.503912 1.288135,1.79745 2.961122,3.237841 4.627549,4.666954 1.051193,0.856969 2.030923,1.796547 3.060732,2.677774 0.870236,0.706622 1.834092,1.272407 2.838514,1.763963 0.62911,0.325779 1.268864,0.626372 1.908309,0.930921 0,0 -3.278433,2.16448 -3.278433,2.16448 v 0 c -0.635368,-0.308044 -1.265304,-0.625092 -1.892993,-0.948436 -1.023337,-0.522568 -2.024248,-1.093105 -2.904345,-1.839238 -1.00939,-0.894125 -1.967613,-1.845837 -2.999949,-2.714877 -1.668446,-1.465754 -3.321444,-2.958951 -4.645326,-4.757221 -0.553315,-0.752033 -0.791663,-1.048687 -1.288291,-1.82858 -0.453739,-0.712542 -0.833572,-1.458714 -1.240793,-2.196283 -0.08155,-0.147703 -0.175709,-0.288089 -0.263564,-0.432136 0,0 3.421208,-1.991233 3.421208,-1.991233 z"
       inkscape:connector-curvature="0" />
  </g>
</svg>
